<?xml version="1.0" encoding="utf-8"?>
<!-- Generator: Adobe Illustrator 24.0.0, SVG Export Plug-In . SVG Version: 6.00 Build 0)  -->
<svg version="1.1" id="f00ef427-df28-4f5c-b152-be5c80ecc0b3"
	 xmlns="http://www.w3.org/2000/svg" xmlns:xlink="http://www.w3.org/1999/xlink" x="0px" y="0px" viewBox="0 0 400 371.9"
	 enable-background="new 0 0 400 371.9" xml:space="preserve">
<title>logo-perforce-white</title>
<path d="M398.6,130.1c0,0-6.8-85.3-75.5-130.1c-9.7,9.4-21.3,20.7-27,25.9c-9.2-5.3-18.9-9.8-28.8-13.6
	c-86.9-32.6-178.4,4.3-228.7,73C10.8,125.5-2.6,174,0.4,222.9c3.2,60.5,35,115.8,85.7,149c7-9.7,16-22.1,21.8-30.1
	c9.7,5.7,19.8,10.5,30.2,14.4c98.4,36.9,207.3-10.2,242.9-105.1C397,212.9,403,171.3,398.6,130.1z M148.7,321.6
	C72.3,292.9,33.6,207.7,62.2,131.3c2.7-7.1,5.9-14,9.6-20.6c-4.2-3.4-8.2-7.1-11.9-11c46.3-56,106.7-72.8,160.1-63
	c80.9,10.7,137.9,85,127.2,166c-2.5,19.1-8.8,37.6-18.4,54.3c4.6,3.4,9,7.2,13.1,11.2c-51.4,61.4-119.9,75.6-176.8,58.5
	C159.5,325.3,154.1,323.6,148.7,321.6z"/>
</svg>
